<mxfile host="app.diagrams.net" agent="Mozilla/5.0 (Windows NT 10.0; Win64; x64) AppleWebKit/537.36 (KHTML, like Gecko) Chrome/136.0.0.0 Safari/537.36" version="27.0.4" pages="4">
  <diagram name="Strona-1" id="0s8c5vCB4B0IU2GWMlTs">
    <mxGraphModel dx="784" dy="1144" grid="1" gridSize="10" guides="1" tooltips="1" connect="1" arrows="1" fold="1" page="1" pageScale="1" pageWidth="827" pageHeight="1169" math="0" shadow="0">
      <root>
        <mxCell id="0" />
        <mxCell id="1" parent="0" />
        <mxCell id="uPeWOxOiqI772CfeTVB--6" value="Message Service" style="rounded=1;whiteSpace=wrap;html=1;fillColor=#d5e8d4;strokeColor=#82b366;" parent="1" vertex="1">
          <mxGeometry x="320" y="40" width="120" height="80" as="geometry" />
        </mxCell>
        <mxCell id="uPeWOxOiqI772CfeTVB--7" value="Chat Service" style="rounded=1;whiteSpace=wrap;html=1;fillColor=#fff2cc;strokeColor=#d6b656;" parent="1" vertex="1">
          <mxGeometry x="320" y="200" width="120" height="80" as="geometry" />
        </mxCell>
        <mxCell id="uPeWOxOiqI772CfeTVB--8" value="User Service" style="rounded=1;whiteSpace=wrap;html=1;fillColor=#d0cee2;strokeColor=#56517e;" parent="1" vertex="1">
          <mxGeometry x="320" y="360" width="120" height="80" as="geometry" />
        </mxCell>
        <mxCell id="uPeWOxOiqI772CfeTVB--9" value="Postgresql" style="shape=cylinder3;whiteSpace=wrap;html=1;boundedLbl=1;backgroundOutline=1;size=15;fillColor=#dae8fc;strokeColor=#6c8ebf;" parent="1" vertex="1">
          <mxGeometry x="570" y="280" width="70" height="80" as="geometry" />
        </mxCell>
        <mxCell id="uPeWOxOiqI772CfeTVB--11" value="Scylla" style="shape=cylinder3;whiteSpace=wrap;html=1;boundedLbl=1;backgroundOutline=1;size=15;fillColor=#f5f5f5;strokeColor=#666666;fontColor=#333333;" parent="1" vertex="1">
          <mxGeometry x="570" y="40" width="70" height="80" as="geometry" />
        </mxCell>
        <mxCell id="uPeWOxOiqI772CfeTVB--12" value="Gateway" style="rounded=1;whiteSpace=wrap;html=1;fillColor=#e1d5e7;strokeColor=#9673a6;" parent="1" vertex="1">
          <mxGeometry x="180" y="200" width="60" height="80" as="geometry" />
        </mxCell>
        <mxCell id="uPeWOxOiqI772CfeTVB--13" value="" style="sketch=0;outlineConnect=0;fontColor=#232F3E;gradientColor=none;fillColor=#232F3D;strokeColor=none;dashed=0;verticalLabelPosition=bottom;verticalAlign=top;align=center;html=1;fontSize=12;fontStyle=0;aspect=fixed;pointerEvents=1;shape=mxgraph.aws4.client;" parent="1" vertex="1">
          <mxGeometry y="202" width="78" height="76" as="geometry" />
        </mxCell>
        <mxCell id="uPeWOxOiqI772CfeTVB--42" value="" style="endArrow=classic;startArrow=classic;html=1;rounded=0;" parent="1" source="uPeWOxOiqI772CfeTVB--13" edge="1">
          <mxGeometry width="50" height="50" relative="1" as="geometry">
            <mxPoint x="130" y="290" as="sourcePoint" />
            <mxPoint x="180" y="240" as="targetPoint" />
          </mxGeometry>
        </mxCell>
        <mxCell id="uPeWOxOiqI772CfeTVB--43" value="" style="endArrow=classic;startArrow=classic;html=1;rounded=0;exitX=0.5;exitY=0;exitDx=0;exitDy=0;entryX=0;entryY=0.5;entryDx=0;entryDy=0;" parent="1" source="uPeWOxOiqI772CfeTVB--12" target="uPeWOxOiqI772CfeTVB--6" edge="1">
          <mxGeometry width="50" height="50" relative="1" as="geometry">
            <mxPoint x="218" y="129.70999999999998" as="sourcePoint" />
            <mxPoint x="320" y="129.70999999999998" as="targetPoint" />
            <Array as="points">
              <mxPoint x="210" y="80" />
            </Array>
          </mxGeometry>
        </mxCell>
        <mxCell id="uPeWOxOiqI772CfeTVB--44" value="" style="endArrow=classic;startArrow=classic;html=1;rounded=0;exitX=0.5;exitY=1;exitDx=0;exitDy=0;entryX=0;entryY=0.5;entryDx=0;entryDy=0;" parent="1" source="uPeWOxOiqI772CfeTVB--12" target="uPeWOxOiqI772CfeTVB--8" edge="1">
          <mxGeometry width="50" height="50" relative="1" as="geometry">
            <mxPoint x="210" y="430.28999999999996" as="sourcePoint" />
            <mxPoint x="320" y="350" as="targetPoint" />
            <Array as="points">
              <mxPoint x="210" y="400" />
            </Array>
          </mxGeometry>
        </mxCell>
        <mxCell id="uPeWOxOiqI772CfeTVB--45" value="" style="endArrow=classic;startArrow=classic;html=1;rounded=0;exitX=1;exitY=0.5;exitDx=0;exitDy=0;entryX=0.5;entryY=0;entryDx=0;entryDy=0;entryPerimeter=0;" parent="1" source="uPeWOxOiqI772CfeTVB--7" target="uPeWOxOiqI772CfeTVB--9" edge="1">
          <mxGeometry width="50" height="50" relative="1" as="geometry">
            <mxPoint x="440" y="230" as="sourcePoint" />
            <mxPoint x="570" y="285" as="targetPoint" />
            <Array as="points">
              <mxPoint x="605" y="240" />
            </Array>
          </mxGeometry>
        </mxCell>
        <mxCell id="uPeWOxOiqI772CfeTVB--46" value="" style="endArrow=classic;startArrow=classic;html=1;rounded=0;exitX=1;exitY=0.5;exitDx=0;exitDy=0;entryX=0.5;entryY=1;entryDx=0;entryDy=0;entryPerimeter=0;" parent="1" source="uPeWOxOiqI772CfeTVB--8" target="uPeWOxOiqI772CfeTVB--9" edge="1">
          <mxGeometry width="50" height="50" relative="1" as="geometry">
            <mxPoint x="440" y="350" as="sourcePoint" />
            <mxPoint x="570" y="405" as="targetPoint" />
            <Array as="points">
              <mxPoint x="605" y="400" />
            </Array>
          </mxGeometry>
        </mxCell>
        <mxCell id="uPeWOxOiqI772CfeTVB--47" value="" style="endArrow=classic;startArrow=classic;html=1;rounded=0;exitX=1;exitY=0.5;exitDx=0;exitDy=0;entryX=0;entryY=0.5;entryDx=0;entryDy=0;entryPerimeter=0;" parent="1" source="uPeWOxOiqI772CfeTVB--6" target="uPeWOxOiqI772CfeTVB--11" edge="1">
          <mxGeometry width="50" height="50" relative="1" as="geometry">
            <mxPoint x="440" y="130" as="sourcePoint" />
            <mxPoint x="570" y="175" as="targetPoint" />
          </mxGeometry>
        </mxCell>
        <mxCell id="uPeWOxOiqI772CfeTVB--48" value="" style="endArrow=classic;startArrow=classic;html=1;rounded=0;exitX=0.5;exitY=0;exitDx=0;exitDy=0;entryX=0;entryY=0.5;entryDx=0;entryDy=0;" parent="1" target="uPeWOxOiqI772CfeTVB--7" edge="1">
          <mxGeometry width="50" height="50" relative="1" as="geometry">
            <mxPoint x="240" y="240.29" as="sourcePoint" />
            <mxPoint x="350" y="159.99999999999997" as="targetPoint" />
          </mxGeometry>
        </mxCell>
        <mxCell id="uPeWOxOiqI772CfeTVB--51" value="Redis" style="ellipse;whiteSpace=wrap;html=1;fillColor=#ffe6cc;strokeColor=#d79b00;" parent="1" vertex="1">
          <mxGeometry x="480" y="145" width="60" height="40" as="geometry" />
        </mxCell>
        <mxCell id="uPeWOxOiqI772CfeTVB--52" value="" style="endArrow=classic;startArrow=classic;html=1;rounded=0;exitX=1;exitY=0.75;exitDx=0;exitDy=0;entryX=0.5;entryY=0;entryDx=0;entryDy=0;" parent="1" source="uPeWOxOiqI772CfeTVB--6" target="uPeWOxOiqI772CfeTVB--51" edge="1">
          <mxGeometry width="50" height="50" relative="1" as="geometry">
            <mxPoint x="450" y="130" as="sourcePoint" />
            <mxPoint x="580" y="130" as="targetPoint" />
            <Array as="points">
              <mxPoint x="510" y="100" />
            </Array>
          </mxGeometry>
        </mxCell>
        <mxCell id="F-L0ZuFLSISTnWNwBfEP-2" value="" style="endArrow=classic;startArrow=classic;html=1;rounded=0;exitX=0.75;exitY=1;exitDx=0;exitDy=0;entryX=0.5;entryY=0;entryDx=0;entryDy=0;" parent="1" target="uPeWOxOiqI772CfeTVB--8" edge="1">
          <mxGeometry width="50" height="50" relative="1" as="geometry">
            <mxPoint x="379.66" y="280" as="sourcePoint" />
            <mxPoint x="379.66" y="320" as="targetPoint" />
          </mxGeometry>
        </mxCell>
        <mxCell id="0e-CxVL7XQfvicOGgGdf-15" value="" style="endArrow=classic;startArrow=classic;html=1;rounded=0;entryX=0.5;entryY=1;entryDx=0;entryDy=0;exitX=0.5;exitY=0;exitDx=0;exitDy=0;" parent="1" source="uPeWOxOiqI772CfeTVB--7" target="uPeWOxOiqI772CfeTVB--6" edge="1">
          <mxGeometry width="50" height="50" relative="1" as="geometry">
            <mxPoint x="440" y="340" as="sourcePoint" />
            <mxPoint x="490" y="290" as="targetPoint" />
          </mxGeometry>
        </mxCell>
        <mxCell id="0e-CxVL7XQfvicOGgGdf-17" value="" style="endArrow=classic;html=1;rounded=0;exitX=0.25;exitY=0;exitDx=0;exitDy=0;entryX=0.25;entryY=1;entryDx=0;entryDy=0;" parent="1" source="uPeWOxOiqI772CfeTVB--7" target="uPeWOxOiqI772CfeTVB--6" edge="1">
          <mxGeometry width="50" height="50" relative="1" as="geometry">
            <mxPoint x="300.6" y="202.03999999999996" as="sourcePoint" />
            <mxPoint x="300" y="125" as="targetPoint" />
          </mxGeometry>
        </mxCell>
        <mxCell id="0e-CxVL7XQfvicOGgGdf-18" value="Chat events" style="edgeLabel;html=1;align=center;verticalAlign=middle;resizable=0;points=[];labelBorderColor=default;" parent="0e-CxVL7XQfvicOGgGdf-17" vertex="1" connectable="0">
          <mxGeometry x="0.0083" y="-1" relative="1" as="geometry">
            <mxPoint x="-11" y="10" as="offset" />
          </mxGeometry>
        </mxCell>
        <mxCell id="XN6Ez9EbwMNuFzHp1hqB-3" value="" style="endArrow=classic;html=1;rounded=0;exitX=0.25;exitY=0;exitDx=0;exitDy=0;entryX=0.25;entryY=1;entryDx=0;entryDy=0;" edge="1" parent="1">
          <mxGeometry x="0.25" y="37" width="50" height="50" relative="1" as="geometry">
            <mxPoint x="413" y="120" as="sourcePoint" />
            <mxPoint x="413" y="200" as="targetPoint" />
            <mxPoint as="offset" />
          </mxGeometry>
        </mxCell>
        <mxCell id="XN6Ez9EbwMNuFzHp1hqB-7" value="Message events" style="edgeLabel;html=1;align=center;verticalAlign=middle;resizable=0;points=[];labelBorderColor=default;" vertex="1" connectable="0" parent="XN6Ez9EbwMNuFzHp1hqB-3">
          <mxGeometry x="0.0083" relative="1" as="geometry">
            <mxPoint x="17" y="-15" as="offset" />
          </mxGeometry>
        </mxCell>
      </root>
    </mxGraphModel>
  </diagram>
  <diagram id="qW5s42QJ5nyfwBdbO1L7" name="Strona-2">
    <mxGraphModel dx="934" dy="1247" grid="1" gridSize="10" guides="1" tooltips="1" connect="1" arrows="1" fold="1" page="1" pageScale="1" pageWidth="827" pageHeight="1169" math="0" shadow="0">
      <root>
        <mxCell id="0" />
        <mxCell id="1" parent="0" />
        <mxCell id="NrGT-8d3PgPr0IU5EtqF-16" style="edgeStyle=orthogonalEdgeStyle;rounded=0;orthogonalLoop=1;jettySize=auto;html=1;curved=0;" parent="1" edge="1">
          <mxGeometry relative="1" as="geometry">
            <mxPoint x="40.00000000000002" y="280" as="sourcePoint" />
            <mxPoint x="413.4" y="280" as="targetPoint" />
          </mxGeometry>
        </mxCell>
        <mxCell id="NrGT-8d3PgPr0IU5EtqF-17" value="Get chats" style="edgeLabel;html=1;align=center;verticalAlign=middle;resizable=0;points=[];" parent="NrGT-8d3PgPr0IU5EtqF-16" vertex="1" connectable="0">
          <mxGeometry relative="1" as="geometry">
            <mxPoint x="23" as="offset" />
          </mxGeometry>
        </mxCell>
        <mxCell id="NrGT-8d3PgPr0IU5EtqF-29" style="edgeStyle=orthogonalEdgeStyle;rounded=0;orthogonalLoop=1;jettySize=auto;html=1;curved=0;dashed=1;" parent="1" edge="1">
          <mxGeometry relative="1" as="geometry">
            <mxPoint x="39.998571428571445" y="200" as="sourcePoint" />
            <mxPoint x="619.57" y="200" as="targetPoint" />
          </mxGeometry>
        </mxCell>
        <mxCell id="NrGT-8d3PgPr0IU5EtqF-30" value="Connect by ws" style="edgeLabel;html=1;align=center;verticalAlign=middle;resizable=0;points=[];" parent="NrGT-8d3PgPr0IU5EtqF-29" vertex="1" connectable="0">
          <mxGeometry x="0.0476" y="1" relative="1" as="geometry">
            <mxPoint as="offset" />
          </mxGeometry>
        </mxCell>
        <mxCell id="YLNTQG03PfodSorCyvoP-2" value="" style="shape=umlLifeline;perimeter=lifelinePerimeter;whiteSpace=wrap;html=1;container=1;dropTarget=0;collapsible=0;recursiveResize=0;outlineConnect=0;portConstraint=eastwest;newEdgeStyle={&quot;curved&quot;:0,&quot;rounded&quot;:0};participant=umlActor;" parent="1" vertex="1">
          <mxGeometry x="790" y="40" width="20" height="800" as="geometry" />
        </mxCell>
        <mxCell id="YLNTQG03PfodSorCyvoP-3" value="User-svc" style="shape=umlLifeline;perimeter=lifelinePerimeter;whiteSpace=wrap;html=1;container=1;dropTarget=0;collapsible=0;recursiveResize=0;outlineConnect=0;portConstraint=eastwest;newEdgeStyle={&quot;curved&quot;:0,&quot;rounded&quot;:0};" parent="1" vertex="1">
          <mxGeometry x="160" y="40" width="100" height="800" as="geometry" />
        </mxCell>
        <mxCell id="NrGT-8d3PgPr0IU5EtqF-18" style="edgeStyle=orthogonalEdgeStyle;rounded=0;orthogonalLoop=1;jettySize=auto;html=1;curved=0;" parent="1" edge="1">
          <mxGeometry relative="1" as="geometry">
            <mxPoint x="413.57" y="320" as="sourcePoint" />
            <mxPoint x="39.998571428571445" y="320" as="targetPoint" />
          </mxGeometry>
        </mxCell>
        <mxCell id="NrGT-8d3PgPr0IU5EtqF-19" value="Chats by last update" style="edgeLabel;html=1;align=center;verticalAlign=middle;resizable=0;points=[];" parent="NrGT-8d3PgPr0IU5EtqF-18" vertex="1" connectable="0">
          <mxGeometry x="-0.1117" y="-1" relative="1" as="geometry">
            <mxPoint as="offset" />
          </mxGeometry>
        </mxCell>
        <mxCell id="NrGT-8d3PgPr0IU5EtqF-1" value="Chat-svc" style="shape=umlLifeline;perimeter=lifelinePerimeter;whiteSpace=wrap;html=1;container=1;dropTarget=0;collapsible=0;recursiveResize=0;outlineConnect=0;portConstraint=eastwest;newEdgeStyle={&quot;curved&quot;:0,&quot;rounded&quot;:0};" parent="1" vertex="1">
          <mxGeometry x="364" y="40" width="100" height="800" as="geometry" />
        </mxCell>
        <mxCell id="NrGT-8d3PgPr0IU5EtqF-2" value="Message-svc" style="shape=umlLifeline;perimeter=lifelinePerimeter;whiteSpace=wrap;html=1;container=1;dropTarget=0;collapsible=0;recursiveResize=0;outlineConnect=0;portConstraint=eastwest;newEdgeStyle={&quot;curved&quot;:0,&quot;rounded&quot;:0};" parent="1" vertex="1">
          <mxGeometry x="570" y="40" width="100" height="800" as="geometry" />
        </mxCell>
        <mxCell id="NrGT-8d3PgPr0IU5EtqF-12" style="edgeStyle=orthogonalEdgeStyle;rounded=0;orthogonalLoop=1;jettySize=auto;html=1;curved=0;" parent="1" edge="1">
          <mxGeometry relative="1" as="geometry">
            <mxPoint x="40.00000000000002" y="120" as="sourcePoint" />
            <mxPoint x="209.4" y="120" as="targetPoint" />
          </mxGeometry>
        </mxCell>
        <mxCell id="NrGT-8d3PgPr0IU5EtqF-13" value="Login" style="edgeLabel;html=1;align=center;verticalAlign=middle;resizable=0;points=[];" parent="NrGT-8d3PgPr0IU5EtqF-12" vertex="1" connectable="0">
          <mxGeometry relative="1" as="geometry">
            <mxPoint as="offset" />
          </mxGeometry>
        </mxCell>
        <mxCell id="NrGT-8d3PgPr0IU5EtqF-14" style="edgeStyle=orthogonalEdgeStyle;rounded=0;orthogonalLoop=1;jettySize=auto;html=1;curved=0;" parent="1" edge="1">
          <mxGeometry relative="1" as="geometry">
            <mxPoint x="209.4" y="160" as="sourcePoint" />
            <mxPoint x="40.00000000000002" y="160" as="targetPoint" />
          </mxGeometry>
        </mxCell>
        <mxCell id="NrGT-8d3PgPr0IU5EtqF-15" value="Id+jwt" style="edgeLabel;html=1;align=center;verticalAlign=middle;resizable=0;points=[];" parent="NrGT-8d3PgPr0IU5EtqF-14" vertex="1" connectable="0">
          <mxGeometry relative="1" as="geometry">
            <mxPoint as="offset" />
          </mxGeometry>
        </mxCell>
        <mxCell id="NrGT-8d3PgPr0IU5EtqF-20" style="edgeStyle=orthogonalEdgeStyle;rounded=0;orthogonalLoop=1;jettySize=auto;html=1;curved=0;" parent="1" target="NrGT-8d3PgPr0IU5EtqF-54" edge="1">
          <mxGeometry relative="1" as="geometry">
            <mxPoint x="40.27011494252875" y="360" as="sourcePoint" />
            <mxPoint x="40.27011494252875" y="380" as="targetPoint" />
            <Array as="points">
              <mxPoint x="70" y="360" />
              <mxPoint x="70" y="400" />
            </Array>
          </mxGeometry>
        </mxCell>
        <mxCell id="NrGT-8d3PgPr0IU5EtqF-21" value="Enter chat" style="edgeLabel;html=1;align=center;verticalAlign=middle;resizable=0;points=[];" parent="NrGT-8d3PgPr0IU5EtqF-20" vertex="1" connectable="0">
          <mxGeometry x="-0.0649" y="1" relative="1" as="geometry">
            <mxPoint as="offset" />
          </mxGeometry>
        </mxCell>
        <mxCell id="NrGT-8d3PgPr0IU5EtqF-33" style="edgeStyle=orthogonalEdgeStyle;rounded=0;orthogonalLoop=1;jettySize=auto;html=1;curved=0;dashed=1;" parent="1" edge="1">
          <mxGeometry relative="1" as="geometry">
            <mxPoint x="39.998571428571445" y="240" as="sourcePoint" />
            <mxPoint x="619.57" y="240" as="targetPoint" />
          </mxGeometry>
        </mxCell>
        <mxCell id="NrGT-8d3PgPr0IU5EtqF-34" value="Subscribe to userId/queue/messages" style="edgeLabel;html=1;align=center;verticalAlign=middle;resizable=0;points=[];" parent="NrGT-8d3PgPr0IU5EtqF-33" vertex="1" connectable="0">
          <mxGeometry x="0.0476" y="1" relative="1" as="geometry">
            <mxPoint as="offset" />
          </mxGeometry>
        </mxCell>
        <mxCell id="NrGT-8d3PgPr0IU5EtqF-35" style="edgeStyle=orthogonalEdgeStyle;rounded=0;orthogonalLoop=1;jettySize=auto;html=1;curved=0;" parent="1" target="NrGT-8d3PgPr0IU5EtqF-2" edge="1">
          <mxGeometry relative="1" as="geometry">
            <mxPoint x="620.2222222222223" y="210" as="sourcePoint" />
            <mxPoint x="690" y="230" as="targetPoint" />
            <Array as="points">
              <mxPoint x="690" y="210" />
              <mxPoint x="690" y="230" />
            </Array>
          </mxGeometry>
        </mxCell>
        <mxCell id="NrGT-8d3PgPr0IU5EtqF-36" value="Save session" style="edgeLabel;html=1;align=center;verticalAlign=middle;resizable=0;points=[];" parent="NrGT-8d3PgPr0IU5EtqF-35" vertex="1" connectable="0">
          <mxGeometry x="-0.0237" y="1" relative="1" as="geometry">
            <mxPoint as="offset" />
          </mxGeometry>
        </mxCell>
        <mxCell id="NrGT-8d3PgPr0IU5EtqF-46" value="" style="endArrow=classic;html=1;rounded=0;" parent="1" edge="1">
          <mxGeometry width="50" height="50" relative="1" as="geometry">
            <mxPoint x="39.998571428571445" y="440" as="sourcePoint" />
            <mxPoint x="619.5" y="440" as="targetPoint" />
          </mxGeometry>
        </mxCell>
        <mxCell id="NrGT-8d3PgPr0IU5EtqF-47" value="Get messages" style="edgeLabel;html=1;align=center;verticalAlign=middle;resizable=0;points=[];" parent="NrGT-8d3PgPr0IU5EtqF-46" vertex="1" connectable="0">
          <mxGeometry relative="1" as="geometry">
            <mxPoint as="offset" />
          </mxGeometry>
        </mxCell>
        <mxCell id="NrGT-8d3PgPr0IU5EtqF-48" value="" style="endArrow=classic;html=1;rounded=0;" parent="1" edge="1">
          <mxGeometry width="50" height="50" relative="1" as="geometry">
            <mxPoint x="620" y="479.99999999999994" as="sourcePoint" />
            <mxPoint x="39.998571428571445" y="479.99999999999994" as="targetPoint" />
          </mxGeometry>
        </mxCell>
        <mxCell id="NrGT-8d3PgPr0IU5EtqF-49" value="Messages" style="edgeLabel;html=1;align=center;verticalAlign=middle;resizable=0;points=[];" parent="NrGT-8d3PgPr0IU5EtqF-48" vertex="1" connectable="0">
          <mxGeometry relative="1" as="geometry">
            <mxPoint as="offset" />
          </mxGeometry>
        </mxCell>
        <mxCell id="NrGT-8d3PgPr0IU5EtqF-50" value="S" style="endArrow=classic;html=1;rounded=0;" parent="1" edge="1">
          <mxGeometry width="50" height="50" relative="1" as="geometry">
            <mxPoint x="39.998571428571445" y="600" as="sourcePoint" />
            <mxPoint x="620" y="600" as="targetPoint" />
          </mxGeometry>
        </mxCell>
        <mxCell id="NrGT-8d3PgPr0IU5EtqF-51" value="Send message" style="edgeLabel;html=1;align=center;verticalAlign=middle;resizable=0;points=[];" parent="NrGT-8d3PgPr0IU5EtqF-50" vertex="1" connectable="0">
          <mxGeometry relative="1" as="geometry">
            <mxPoint as="offset" />
          </mxGeometry>
        </mxCell>
        <mxCell id="NrGT-8d3PgPr0IU5EtqF-52" value="" style="endArrow=classic;html=1;rounded=0;" parent="1" edge="1">
          <mxGeometry width="50" height="50" relative="1" as="geometry">
            <mxPoint x="620" y="640" as="sourcePoint" />
            <mxPoint x="39.998571428571445" y="640" as="targetPoint" />
          </mxGeometry>
        </mxCell>
        <mxCell id="NrGT-8d3PgPr0IU5EtqF-54" value="" style="shape=umlLifeline;perimeter=lifelinePerimeter;whiteSpace=wrap;html=1;container=1;dropTarget=0;collapsible=0;recursiveResize=0;outlineConnect=0;portConstraint=eastwest;newEdgeStyle={&quot;curved&quot;:0,&quot;rounded&quot;:0};participant=umlActor;" parent="1" vertex="1">
          <mxGeometry x="30" y="50" width="20" height="790" as="geometry" />
        </mxCell>
        <mxCell id="NrGT-8d3PgPr0IU5EtqF-55" value="" style="endArrow=classic;html=1;rounded=0;dashed=1;" parent="1" edge="1">
          <mxGeometry width="50" height="50" relative="1" as="geometry">
            <mxPoint x="619.69" y="460" as="sourcePoint" />
            <mxPoint x="414.00034482758605" y="460" as="targetPoint" />
          </mxGeometry>
        </mxCell>
        <mxCell id="NrGT-8d3PgPr0IU5EtqF-56" value="Update Last seen for chat" style="edgeLabel;html=1;align=center;verticalAlign=middle;resizable=0;points=[];" parent="NrGT-8d3PgPr0IU5EtqF-55" vertex="1" connectable="0">
          <mxGeometry relative="1" as="geometry">
            <mxPoint as="offset" />
          </mxGeometry>
        </mxCell>
        <mxCell id="NrGT-8d3PgPr0IU5EtqF-59" value="Redis1 - k: chatId&amp;nbsp; v: list of partcipants&lt;div&gt;Redis2 - k: userId&amp;nbsp; v: chatIds&lt;/div&gt;" style="text;html=1;align=center;verticalAlign=middle;whiteSpace=wrap;rounded=0;" parent="1" vertex="1">
          <mxGeometry x="30" y="870" width="380" height="40" as="geometry" />
        </mxCell>
        <mxCell id="NrGT-8d3PgPr0IU5EtqF-60" value="" style="endArrow=classic;html=1;rounded=0;" parent="1" edge="1">
          <mxGeometry width="50" height="50" relative="1" as="geometry">
            <mxPoint x="619.6666666666665" y="620" as="sourcePoint" />
            <mxPoint x="799.5" y="620" as="targetPoint" />
            <Array as="points">
              <mxPoint x="680" y="620" />
            </Array>
          </mxGeometry>
        </mxCell>
        <mxCell id="NrGT-8d3PgPr0IU5EtqF-61" value="Send messages&amp;nbsp;&lt;div&gt;to&amp;nbsp;&lt;span style=&quot;background-color: light-dark(#ffffff, var(--ge-dark-color, #121212)); color: light-dark(rgb(0, 0, 0), rgb(255, 255, 255));&quot;&gt;chat partcipants&lt;/span&gt;&lt;/div&gt;" style="edgeLabel;html=1;align=center;verticalAlign=middle;resizable=0;points=[];" parent="NrGT-8d3PgPr0IU5EtqF-60" vertex="1" connectable="0">
          <mxGeometry relative="1" as="geometry">
            <mxPoint as="offset" />
          </mxGeometry>
        </mxCell>
        <mxCell id="NrGT-8d3PgPr0IU5EtqF-62" style="edgeStyle=orthogonalEdgeStyle;rounded=0;orthogonalLoop=1;jettySize=auto;html=1;curved=0;" parent="1" edge="1">
          <mxGeometry relative="1" as="geometry">
            <mxPoint x="414" y="290" as="sourcePoint" />
            <mxPoint x="414" y="310" as="targetPoint" />
            <Array as="points">
              <mxPoint x="414" y="290" />
              <mxPoint x="444" y="290" />
              <mxPoint x="444" y="310" />
              <mxPoint x="414" y="310" />
            </Array>
          </mxGeometry>
        </mxCell>
        <mxCell id="NrGT-8d3PgPr0IU5EtqF-63" value="Save user&#39;s chats in redis" style="edgeLabel;html=1;align=center;verticalAlign=middle;resizable=0;points=[];" parent="NrGT-8d3PgPr0IU5EtqF-62" vertex="1" connectable="0">
          <mxGeometry relative="1" as="geometry">
            <mxPoint as="offset" />
          </mxGeometry>
        </mxCell>
        <mxCell id="NrGT-8d3PgPr0IU5EtqF-68" value="" style="endArrow=classic;html=1;rounded=0;" parent="1" edge="1">
          <mxGeometry width="50" height="50" relative="1" as="geometry">
            <mxPoint x="799.83" y="740" as="sourcePoint" />
            <mxPoint x="619.9966666666666" y="740" as="targetPoint" />
            <Array as="points">
              <mxPoint x="680.33" y="740" />
            </Array>
          </mxGeometry>
        </mxCell>
        <mxCell id="NrGT-8d3PgPr0IU5EtqF-70" value="Disconnect" style="edgeLabel;html=1;align=center;verticalAlign=middle;resizable=0;points=[];" parent="NrGT-8d3PgPr0IU5EtqF-68" vertex="1" connectable="0">
          <mxGeometry x="-0.0601" y="-1" relative="1" as="geometry">
            <mxPoint as="offset" />
          </mxGeometry>
        </mxCell>
        <mxCell id="NrGT-8d3PgPr0IU5EtqF-71" value="" style="endArrow=classic;html=1;rounded=0;" parent="1" edge="1">
          <mxGeometry width="50" height="50" relative="1" as="geometry">
            <mxPoint x="619.83" y="780" as="sourcePoint" />
            <mxPoint x="40.02380952380946" y="780" as="targetPoint" />
            <Array as="points">
              <mxPoint x="500.33000000000004" y="780" />
            </Array>
          </mxGeometry>
        </mxCell>
        <mxCell id="NrGT-8d3PgPr0IU5EtqF-72" value="Notify user" style="edgeLabel;html=1;align=center;verticalAlign=middle;resizable=0;points=[];" parent="NrGT-8d3PgPr0IU5EtqF-71" vertex="1" connectable="0">
          <mxGeometry x="-0.0601" y="-1" relative="1" as="geometry">
            <mxPoint as="offset" />
          </mxGeometry>
        </mxCell>
        <mxCell id="NrGT-8d3PgPr0IU5EtqF-73" style="edgeStyle=orthogonalEdgeStyle;rounded=0;orthogonalLoop=1;jettySize=auto;html=1;curved=0;" parent="1" edge="1">
          <mxGeometry relative="1" as="geometry">
            <mxPoint x="620.2222222222223" y="750" as="sourcePoint" />
            <mxPoint x="620" y="770" as="targetPoint" />
            <Array as="points">
              <mxPoint x="690" y="750" />
              <mxPoint x="690" y="770" />
            </Array>
          </mxGeometry>
        </mxCell>
        <mxCell id="NrGT-8d3PgPr0IU5EtqF-74" value="Delete session" style="edgeLabel;html=1;align=center;verticalAlign=middle;resizable=0;points=[];" parent="NrGT-8d3PgPr0IU5EtqF-73" vertex="1" connectable="0">
          <mxGeometry x="-0.0237" y="1" relative="1" as="geometry">
            <mxPoint as="offset" />
          </mxGeometry>
        </mxCell>
      </root>
    </mxGraphModel>
  </diagram>
  <diagram id="CNe-sD2Zy5fBttL-TB0t" name="Strona-3">
    <mxGraphModel dx="261" dy="381" grid="1" gridSize="10" guides="1" tooltips="1" connect="1" arrows="1" fold="1" page="1" pageScale="1" pageWidth="827" pageHeight="1169" math="0" shadow="0">
      <root>
        <mxCell id="0" />
        <mxCell id="1" parent="0" />
        <mxCell id="v_NFYFPECCPKVpfh6n_E-1" value="Postgresql" style="shape=cylinder3;whiteSpace=wrap;html=1;boundedLbl=1;backgroundOutline=1;size=15;fillColor=#dae8fc;strokeColor=#6c8ebf;" parent="1" vertex="1">
          <mxGeometry x="70" width="120" height="80" as="geometry" />
        </mxCell>
        <mxCell id="v_NFYFPECCPKVpfh6n_E-2" value="Users" style="shape=cylinder3;whiteSpace=wrap;html=1;boundedLbl=1;backgroundOutline=1;size=15;" parent="1" vertex="1">
          <mxGeometry x="240" y="70" width="60" height="60" as="geometry" />
        </mxCell>
        <mxCell id="v_NFYFPECCPKVpfh6n_E-3" value="Chats" style="shape=cylinder3;whiteSpace=wrap;html=1;boundedLbl=1;backgroundOutline=1;size=15;" parent="1" vertex="1">
          <mxGeometry x="360" y="70" width="60" height="60" as="geometry" />
        </mxCell>
        <mxCell id="v_NFYFPECCPKVpfh6n_E-4" value="" style="endArrow=none;html=1;rounded=0;entryX=0.5;entryY=0;entryDx=0;entryDy=0;entryPerimeter=0;exitX=1;exitY=0.5;exitDx=0;exitDy=0;exitPerimeter=0;" parent="1" source="v_NFYFPECCPKVpfh6n_E-1" target="v_NFYFPECCPKVpfh6n_E-3" edge="1">
          <mxGeometry width="50" height="50" relative="1" as="geometry">
            <mxPoint x="110" y="20" as="sourcePoint" />
            <mxPoint x="390" y="20" as="targetPoint" />
            <Array as="points">
              <mxPoint x="200" y="40" />
              <mxPoint x="390" y="40" />
            </Array>
          </mxGeometry>
        </mxCell>
        <mxCell id="v_NFYFPECCPKVpfh6n_E-5" value="" style="endArrow=none;html=1;rounded=0;entryX=0.5;entryY=0;entryDx=0;entryDy=0;entryPerimeter=0;" parent="1" target="v_NFYFPECCPKVpfh6n_E-2" edge="1">
          <mxGeometry width="50" height="50" relative="1" as="geometry">
            <mxPoint x="270" y="40" as="sourcePoint" />
            <mxPoint x="250" y="120" as="targetPoint" />
          </mxGeometry>
        </mxCell>
        <mxCell id="v_NFYFPECCPKVpfh6n_E-6" value="Users" style="swimlane;fontStyle=0;childLayout=stackLayout;horizontal=1;startSize=26;fillColor=none;horizontalStack=0;resizeParent=1;resizeParentMax=0;resizeLast=0;collapsible=1;marginBottom=0;html=1;" parent="1" vertex="1">
          <mxGeometry x="225" y="159" width="90" height="188" as="geometry">
            <mxRectangle x="150" y="170" width="70" height="30" as="alternateBounds" />
          </mxGeometry>
        </mxCell>
        <mxCell id="v_NFYFPECCPKVpfh6n_E-7" value="Id" style="text;strokeColor=none;fillColor=none;align=left;verticalAlign=top;spacingLeft=4;spacingRight=4;overflow=hidden;rotatable=0;points=[[0,0.5],[1,0.5]];portConstraint=eastwest;whiteSpace=wrap;html=1;" parent="v_NFYFPECCPKVpfh6n_E-6" vertex="1">
          <mxGeometry y="26" width="90" height="26" as="geometry" />
        </mxCell>
        <mxCell id="v_NFYFPECCPKVpfh6n_E-8" value="user_name" style="text;strokeColor=none;fillColor=none;align=left;verticalAlign=top;spacingLeft=4;spacingRight=4;overflow=hidden;rotatable=0;points=[[0,0.5],[1,0.5]];portConstraint=eastwest;whiteSpace=wrap;html=1;" parent="v_NFYFPECCPKVpfh6n_E-6" vertex="1">
          <mxGeometry y="52" width="90" height="26" as="geometry" />
        </mxCell>
        <mxCell id="v_NFYFPECCPKVpfh6n_E-11" value="email" style="text;strokeColor=none;fillColor=none;align=left;verticalAlign=top;spacingLeft=4;spacingRight=4;overflow=hidden;rotatable=0;points=[[0,0.5],[1,0.5]];portConstraint=eastwest;whiteSpace=wrap;html=1;" parent="v_NFYFPECCPKVpfh6n_E-6" vertex="1">
          <mxGeometry y="78" width="90" height="22" as="geometry" />
        </mxCell>
        <mxCell id="v_NFYFPECCPKVpfh6n_E-10" value="password" style="text;strokeColor=none;fillColor=none;align=left;verticalAlign=top;spacingLeft=4;spacingRight=4;overflow=hidden;rotatable=0;points=[[0,0.5],[1,0.5]];portConstraint=eastwest;whiteSpace=wrap;html=1;" parent="v_NFYFPECCPKVpfh6n_E-6" vertex="1">
          <mxGeometry y="100" width="90" height="22" as="geometry" />
        </mxCell>
        <mxCell id="v_NFYFPECCPKVpfh6n_E-12" value="image_url" style="text;strokeColor=none;fillColor=none;align=left;verticalAlign=top;spacingLeft=4;spacingRight=4;overflow=hidden;rotatable=0;points=[[0,0.5],[1,0.5]];portConstraint=eastwest;whiteSpace=wrap;html=1;" parent="v_NFYFPECCPKVpfh6n_E-6" vertex="1">
          <mxGeometry y="122" width="90" height="22" as="geometry" />
        </mxCell>
        <mxCell id="v_NFYFPECCPKVpfh6n_E-13" value="updated_at" style="text;strokeColor=none;fillColor=none;align=left;verticalAlign=top;spacingLeft=4;spacingRight=4;overflow=hidden;rotatable=0;points=[[0,0.5],[1,0.5]];portConstraint=eastwest;whiteSpace=wrap;html=1;" parent="v_NFYFPECCPKVpfh6n_E-6" vertex="1">
          <mxGeometry y="144" width="90" height="22" as="geometry" />
        </mxCell>
        <mxCell id="v_NFYFPECCPKVpfh6n_E-14" value="created_at" style="text;strokeColor=none;fillColor=none;align=left;verticalAlign=top;spacingLeft=4;spacingRight=4;overflow=hidden;rotatable=0;points=[[0,0.5],[1,0.5]];portConstraint=eastwest;whiteSpace=wrap;html=1;" parent="v_NFYFPECCPKVpfh6n_E-6" vertex="1">
          <mxGeometry y="166" width="90" height="22" as="geometry" />
        </mxCell>
        <mxCell id="v_NFYFPECCPKVpfh6n_E-15" value="Chats" style="swimlane;fontStyle=0;childLayout=stackLayout;horizontal=1;startSize=26;fillColor=none;horizontalStack=0;resizeParent=1;resizeParentMax=0;resizeLast=0;collapsible=1;marginBottom=0;html=1;" parent="1" vertex="1">
          <mxGeometry x="340" y="159" width="100" height="166" as="geometry">
            <mxRectangle x="150" y="170" width="70" height="30" as="alternateBounds" />
          </mxGeometry>
        </mxCell>
        <mxCell id="v_NFYFPECCPKVpfh6n_E-16" value="Id" style="text;strokeColor=none;fillColor=none;align=left;verticalAlign=top;spacingLeft=4;spacingRight=4;overflow=hidden;rotatable=0;points=[[0,0.5],[1,0.5]];portConstraint=eastwest;whiteSpace=wrap;html=1;" parent="v_NFYFPECCPKVpfh6n_E-15" vertex="1">
          <mxGeometry y="26" width="100" height="26" as="geometry" />
        </mxCell>
        <mxCell id="v_NFYFPECCPKVpfh6n_E-17" value="name" style="text;strokeColor=none;fillColor=none;align=left;verticalAlign=top;spacingLeft=4;spacingRight=4;overflow=hidden;rotatable=0;points=[[0,0.5],[1,0.5]];portConstraint=eastwest;whiteSpace=wrap;html=1;" parent="v_NFYFPECCPKVpfh6n_E-15" vertex="1">
          <mxGeometry y="52" width="100" height="26" as="geometry" />
        </mxCell>
        <mxCell id="v_NFYFPECCPKVpfh6n_E-18" value="image_url" style="text;strokeColor=none;fillColor=none;align=left;verticalAlign=top;spacingLeft=4;spacingRight=4;overflow=hidden;rotatable=0;points=[[0,0.5],[1,0.5]];portConstraint=eastwest;whiteSpace=wrap;html=1;" parent="v_NFYFPECCPKVpfh6n_E-15" vertex="1">
          <mxGeometry y="78" width="100" height="22" as="geometry" />
        </mxCell>
        <mxCell id="v_NFYFPECCPKVpfh6n_E-19" value="is_private" style="text;strokeColor=none;fillColor=none;align=left;verticalAlign=top;spacingLeft=4;spacingRight=4;overflow=hidden;rotatable=0;points=[[0,0.5],[1,0.5]];portConstraint=eastwest;whiteSpace=wrap;html=1;" parent="v_NFYFPECCPKVpfh6n_E-15" vertex="1">
          <mxGeometry y="100" width="100" height="22" as="geometry" />
        </mxCell>
        <mxCell id="v_NFYFPECCPKVpfh6n_E-21" value="last_message_at" style="text;strokeColor=none;fillColor=none;align=left;verticalAlign=top;spacingLeft=4;spacingRight=4;overflow=hidden;rotatable=0;points=[[0,0.5],[1,0.5]];portConstraint=eastwest;whiteSpace=wrap;html=1;" parent="v_NFYFPECCPKVpfh6n_E-15" vertex="1">
          <mxGeometry y="122" width="100" height="22" as="geometry" />
        </mxCell>
        <mxCell id="v_NFYFPECCPKVpfh6n_E-22" value="createdAt" style="text;strokeColor=none;fillColor=none;align=left;verticalAlign=top;spacingLeft=4;spacingRight=4;overflow=hidden;rotatable=0;points=[[0,0.5],[1,0.5]];portConstraint=eastwest;whiteSpace=wrap;html=1;" parent="v_NFYFPECCPKVpfh6n_E-15" vertex="1">
          <mxGeometry y="144" width="100" height="22" as="geometry" />
        </mxCell>
        <mxCell id="v_NFYFPECCPKVpfh6n_E-23" value="ChatParticipants" style="swimlane;fontStyle=0;childLayout=stackLayout;horizontal=1;startSize=26;fillColor=none;horizontalStack=0;resizeParent=1;resizeParentMax=0;resizeLast=0;collapsible=1;marginBottom=0;html=1;" parent="1" vertex="1">
          <mxGeometry x="510" y="159" width="110" height="166" as="geometry">
            <mxRectangle x="150" y="170" width="70" height="30" as="alternateBounds" />
          </mxGeometry>
        </mxCell>
        <mxCell id="v_NFYFPECCPKVpfh6n_E-24" value="Id" style="text;strokeColor=none;fillColor=none;align=left;verticalAlign=top;spacingLeft=4;spacingRight=4;overflow=hidden;rotatable=0;points=[[0,0.5],[1,0.5]];portConstraint=eastwest;whiteSpace=wrap;html=1;" parent="v_NFYFPECCPKVpfh6n_E-23" vertex="1">
          <mxGeometry y="26" width="110" height="26" as="geometry" />
        </mxCell>
        <mxCell id="v_NFYFPECCPKVpfh6n_E-25" value="chat_id" style="text;strokeColor=none;fillColor=none;align=left;verticalAlign=top;spacingLeft=4;spacingRight=4;overflow=hidden;rotatable=0;points=[[0,0.5],[1,0.5]];portConstraint=eastwest;whiteSpace=wrap;html=1;" parent="v_NFYFPECCPKVpfh6n_E-23" vertex="1">
          <mxGeometry y="52" width="110" height="26" as="geometry" />
        </mxCell>
        <mxCell id="v_NFYFPECCPKVpfh6n_E-26" value="userId" style="text;strokeColor=none;fillColor=none;align=left;verticalAlign=top;spacingLeft=4;spacingRight=4;overflow=hidden;rotatable=0;points=[[0,0.5],[1,0.5]];portConstraint=eastwest;whiteSpace=wrap;html=1;" parent="v_NFYFPECCPKVpfh6n_E-23" vertex="1">
          <mxGeometry y="78" width="110" height="22" as="geometry" />
        </mxCell>
        <mxCell id="v_NFYFPECCPKVpfh6n_E-27" value="role" style="text;strokeColor=none;fillColor=none;align=left;verticalAlign=top;spacingLeft=4;spacingRight=4;overflow=hidden;rotatable=0;points=[[0,0.5],[1,0.5]];portConstraint=eastwest;whiteSpace=wrap;html=1;" parent="v_NFYFPECCPKVpfh6n_E-23" vertex="1">
          <mxGeometry y="100" width="110" height="22" as="geometry" />
        </mxCell>
        <mxCell id="qTgDxhZvO5GHL897Ktns-2" value="last_read_at" style="text;strokeColor=none;fillColor=none;align=left;verticalAlign=top;spacingLeft=4;spacingRight=4;overflow=hidden;rotatable=0;points=[[0,0.5],[1,0.5]];portConstraint=eastwest;whiteSpace=wrap;html=1;" vertex="1" parent="v_NFYFPECCPKVpfh6n_E-23">
          <mxGeometry y="122" width="110" height="22" as="geometry" />
        </mxCell>
        <mxCell id="v_NFYFPECCPKVpfh6n_E-28" value="joinedAt" style="text;strokeColor=none;fillColor=none;align=left;verticalAlign=top;spacingLeft=4;spacingRight=4;overflow=hidden;rotatable=0;points=[[0,0.5],[1,0.5]];portConstraint=eastwest;whiteSpace=wrap;html=1;" parent="v_NFYFPECCPKVpfh6n_E-23" vertex="1">
          <mxGeometry y="144" width="110" height="22" as="geometry" />
        </mxCell>
        <mxCell id="v_NFYFPECCPKVpfh6n_E-30" value="" style="edgeStyle=entityRelationEdgeStyle;fontSize=12;html=1;endArrow=ERmany;rounded=0;entryX=0;entryY=0.5;entryDx=0;entryDy=0;exitX=1;exitY=0.5;exitDx=0;exitDy=0;" parent="1" source="v_NFYFPECCPKVpfh6n_E-18" target="v_NFYFPECCPKVpfh6n_E-25" edge="1">
          <mxGeometry width="100" height="100" relative="1" as="geometry">
            <mxPoint x="360" y="360" as="sourcePoint" />
            <mxPoint x="460" y="260" as="targetPoint" />
          </mxGeometry>
        </mxCell>
        <mxCell id="v_NFYFPECCPKVpfh6n_E-31" value="Scylla" style="shape=cylinder3;whiteSpace=wrap;html=1;boundedLbl=1;backgroundOutline=1;size=15;fillColor=#f5f5f5;fontColor=#333333;strokeColor=#666666;" parent="1" vertex="1">
          <mxGeometry x="70" y="360" width="120" height="80" as="geometry" />
        </mxCell>
        <mxCell id="v_NFYFPECCPKVpfh6n_E-32" value="Messages" style="swimlane;fontStyle=0;childLayout=stackLayout;horizontal=1;startSize=26;fillColor=none;horizontalStack=0;resizeParent=1;resizeParentMax=0;resizeLast=0;collapsible=1;marginBottom=0;html=1;" parent="1" vertex="1">
          <mxGeometry x="217.5" y="430" width="92.5" height="144" as="geometry">
            <mxRectangle x="150" y="170" width="70" height="30" as="alternateBounds" />
          </mxGeometry>
        </mxCell>
        <mxCell id="v_NFYFPECCPKVpfh6n_E-33" value="chat_id" style="text;strokeColor=none;fillColor=none;align=left;verticalAlign=top;spacingLeft=4;spacingRight=4;overflow=hidden;rotatable=0;points=[[0,0.5],[1,0.5]];portConstraint=eastwest;whiteSpace=wrap;html=1;" parent="v_NFYFPECCPKVpfh6n_E-32" vertex="1">
          <mxGeometry y="26" width="92.5" height="26" as="geometry" />
        </mxCell>
        <mxCell id="v_NFYFPECCPKVpfh6n_E-34" value="sender_id" style="text;strokeColor=none;fillColor=none;align=left;verticalAlign=top;spacingLeft=4;spacingRight=4;overflow=hidden;rotatable=0;points=[[0,0.5],[1,0.5]];portConstraint=eastwest;whiteSpace=wrap;html=1;" parent="v_NFYFPECCPKVpfh6n_E-32" vertex="1">
          <mxGeometry y="52" width="92.5" height="26" as="geometry" />
        </mxCell>
        <mxCell id="v_NFYFPECCPKVpfh6n_E-35" value="content" style="text;strokeColor=none;fillColor=none;align=left;verticalAlign=top;spacingLeft=4;spacingRight=4;overflow=hidden;rotatable=0;points=[[0,0.5],[1,0.5]];portConstraint=eastwest;whiteSpace=wrap;html=1;" parent="v_NFYFPECCPKVpfh6n_E-32" vertex="1">
          <mxGeometry y="78" width="92.5" height="22" as="geometry" />
        </mxCell>
        <mxCell id="v_NFYFPECCPKVpfh6n_E-36" value="media_content" style="text;strokeColor=none;fillColor=none;align=left;verticalAlign=top;spacingLeft=4;spacingRight=4;overflow=hidden;rotatable=0;points=[[0,0.5],[1,0.5]];portConstraint=eastwest;whiteSpace=wrap;html=1;" parent="v_NFYFPECCPKVpfh6n_E-32" vertex="1">
          <mxGeometry y="100" width="92.5" height="22" as="geometry" />
        </mxCell>
        <mxCell id="v_NFYFPECCPKVpfh6n_E-37" value="created_at" style="text;strokeColor=none;fillColor=none;align=left;verticalAlign=top;spacingLeft=4;spacingRight=4;overflow=hidden;rotatable=0;points=[[0,0.5],[1,0.5]];portConstraint=eastwest;whiteSpace=wrap;html=1;" parent="v_NFYFPECCPKVpfh6n_E-32" vertex="1">
          <mxGeometry y="122" width="92.5" height="22" as="geometry" />
        </mxCell>
        <mxCell id="IndXQW-ZGkHue12rEYJU-1" value="" style="endArrow=none;dashed=1;html=1;strokeWidth=2;rounded=0;entryX=0.5;entryY=1;entryDx=0;entryDy=0;entryPerimeter=0;exitX=0.5;exitY=0;exitDx=0;exitDy=0;" edge="1" parent="1" source="v_NFYFPECCPKVpfh6n_E-15" target="v_NFYFPECCPKVpfh6n_E-3">
          <mxGeometry width="50" height="50" relative="1" as="geometry">
            <mxPoint x="370" y="220" as="sourcePoint" />
            <mxPoint x="420" y="170" as="targetPoint" />
          </mxGeometry>
        </mxCell>
        <mxCell id="IndXQW-ZGkHue12rEYJU-2" value="" style="endArrow=none;dashed=1;html=1;strokeWidth=2;rounded=0;exitX=0.5;exitY=0;exitDx=0;exitDy=0;" edge="1" parent="1" source="v_NFYFPECCPKVpfh6n_E-6">
          <mxGeometry width="50" height="50" relative="1" as="geometry">
            <mxPoint x="269.76" y="159" as="sourcePoint" />
            <mxPoint x="270" y="130" as="targetPoint" />
          </mxGeometry>
        </mxCell>
        <mxCell id="IndXQW-ZGkHue12rEYJU-3" value="" style="endArrow=none;dashed=1;html=1;strokeWidth=2;rounded=0;entryX=1.011;entryY=0.544;entryDx=0;entryDy=0;entryPerimeter=0;exitX=0.5;exitY=0;exitDx=0;exitDy=0;" edge="1" parent="1" source="v_NFYFPECCPKVpfh6n_E-23" target="v_NFYFPECCPKVpfh6n_E-3">
          <mxGeometry width="50" height="50" relative="1" as="geometry">
            <mxPoint x="584.76" y="159" as="sourcePoint" />
            <mxPoint x="584.76" y="120" as="targetPoint" />
            <Array as="points">
              <mxPoint x="565" y="103" />
            </Array>
          </mxGeometry>
        </mxCell>
        <mxCell id="IndXQW-ZGkHue12rEYJU-4" value="" style="endArrow=none;dashed=1;html=1;strokeWidth=2;rounded=0;entryX=1;entryY=0.5;entryDx=0;entryDy=0;entryPerimeter=0;exitX=0.5;exitY=0;exitDx=0;exitDy=0;" edge="1" parent="1" source="v_NFYFPECCPKVpfh6n_E-32" target="v_NFYFPECCPKVpfh6n_E-31">
          <mxGeometry width="50" height="50" relative="1" as="geometry">
            <mxPoint x="264.76" y="430" as="sourcePoint" />
            <mxPoint x="100" y="361" as="targetPoint" />
            <Array as="points">
              <mxPoint x="264" y="400" />
              <mxPoint x="210" y="400" />
            </Array>
          </mxGeometry>
        </mxCell>
      </root>
    </mxGraphModel>
  </diagram>
  <diagram id="X6-cqH0KU9zkQdpg-zYH" name="Strona-4">
    <mxGraphModel dx="784" dy="1144" grid="1" gridSize="10" guides="1" tooltips="1" connect="1" arrows="1" fold="1" page="1" pageScale="1" pageWidth="827" pageHeight="1169" math="0" shadow="0">
      <root>
        <mxCell id="0" />
        <mxCell id="1" parent="0" />
        <mxCell id="boBYqdQPF7fNbHWNBd9X-1" value="Message Service" style="rounded=1;whiteSpace=wrap;html=1;fillColor=#d5e8d4;strokeColor=#82b366;" vertex="1" parent="1">
          <mxGeometry x="320" y="40" width="120" height="80" as="geometry" />
        </mxCell>
        <mxCell id="boBYqdQPF7fNbHWNBd9X-2" value="Chat Service" style="rounded=1;whiteSpace=wrap;html=1;fillColor=#fff2cc;strokeColor=#d6b656;" vertex="1" parent="1">
          <mxGeometry x="320" y="200" width="120" height="80" as="geometry" />
        </mxCell>
        <mxCell id="boBYqdQPF7fNbHWNBd9X-3" value="User Service" style="rounded=1;whiteSpace=wrap;html=1;fillColor=#d0cee2;strokeColor=#56517e;" vertex="1" parent="1">
          <mxGeometry x="320" y="360" width="120" height="80" as="geometry" />
        </mxCell>
        <mxCell id="boBYqdQPF7fNbHWNBd9X-4" value="Postgresql" style="shape=cylinder3;whiteSpace=wrap;html=1;boundedLbl=1;backgroundOutline=1;size=15;fillColor=#dae8fc;strokeColor=#6c8ebf;" vertex="1" parent="1">
          <mxGeometry x="570" y="280" width="70" height="80" as="geometry" />
        </mxCell>
        <mxCell id="boBYqdQPF7fNbHWNBd9X-5" value="Scylla" style="shape=cylinder3;whiteSpace=wrap;html=1;boundedLbl=1;backgroundOutline=1;size=15;fillColor=#f5f5f5;strokeColor=#666666;fontColor=#333333;" vertex="1" parent="1">
          <mxGeometry x="570" y="35" width="70" height="90" as="geometry" />
        </mxCell>
        <mxCell id="boBYqdQPF7fNbHWNBd9X-6" value="Gateway" style="rounded=1;whiteSpace=wrap;html=1;fillColor=#e1d5e7;strokeColor=#9673a6;" vertex="1" parent="1">
          <mxGeometry x="180" y="200" width="60" height="80" as="geometry" />
        </mxCell>
        <mxCell id="boBYqdQPF7fNbHWNBd9X-7" value="" style="sketch=0;outlineConnect=0;fontColor=#232F3E;gradientColor=none;fillColor=#232F3D;strokeColor=none;dashed=0;verticalLabelPosition=bottom;verticalAlign=top;align=center;html=1;fontSize=12;fontStyle=0;aspect=fixed;pointerEvents=1;shape=mxgraph.aws4.client;" vertex="1" parent="1">
          <mxGeometry y="202" width="78" height="76" as="geometry" />
        </mxCell>
        <mxCell id="boBYqdQPF7fNbHWNBd9X-8" value="" style="endArrow=classic;startArrow=classic;html=1;rounded=0;" edge="1" parent="1" source="boBYqdQPF7fNbHWNBd9X-7">
          <mxGeometry width="50" height="50" relative="1" as="geometry">
            <mxPoint x="130" y="290" as="sourcePoint" />
            <mxPoint x="180" y="240" as="targetPoint" />
          </mxGeometry>
        </mxCell>
        <mxCell id="boBYqdQPF7fNbHWNBd9X-9" value="" style="endArrow=classic;startArrow=classic;html=1;rounded=0;exitX=0.5;exitY=0;exitDx=0;exitDy=0;entryX=0;entryY=0.5;entryDx=0;entryDy=0;" edge="1" parent="1" source="boBYqdQPF7fNbHWNBd9X-6" target="boBYqdQPF7fNbHWNBd9X-1">
          <mxGeometry width="50" height="50" relative="1" as="geometry">
            <mxPoint x="218" y="129.70999999999998" as="sourcePoint" />
            <mxPoint x="320" y="129.70999999999998" as="targetPoint" />
            <Array as="points">
              <mxPoint x="210" y="80" />
            </Array>
          </mxGeometry>
        </mxCell>
        <mxCell id="boBYqdQPF7fNbHWNBd9X-10" value="" style="endArrow=classic;startArrow=classic;html=1;rounded=0;exitX=0.5;exitY=1;exitDx=0;exitDy=0;entryX=0;entryY=0.5;entryDx=0;entryDy=0;" edge="1" parent="1" source="boBYqdQPF7fNbHWNBd9X-6" target="boBYqdQPF7fNbHWNBd9X-3">
          <mxGeometry width="50" height="50" relative="1" as="geometry">
            <mxPoint x="210" y="430.28999999999996" as="sourcePoint" />
            <mxPoint x="320" y="350" as="targetPoint" />
            <Array as="points">
              <mxPoint x="210" y="400" />
            </Array>
          </mxGeometry>
        </mxCell>
        <mxCell id="boBYqdQPF7fNbHWNBd9X-11" value="" style="endArrow=classic;startArrow=classic;html=1;rounded=0;exitX=1;exitY=0.5;exitDx=0;exitDy=0;entryX=0.5;entryY=0;entryDx=0;entryDy=0;entryPerimeter=0;" edge="1" parent="1" source="boBYqdQPF7fNbHWNBd9X-2" target="boBYqdQPF7fNbHWNBd9X-4">
          <mxGeometry width="50" height="50" relative="1" as="geometry">
            <mxPoint x="440" y="230" as="sourcePoint" />
            <mxPoint x="570" y="285" as="targetPoint" />
            <Array as="points">
              <mxPoint x="605" y="240" />
            </Array>
          </mxGeometry>
        </mxCell>
        <mxCell id="boBYqdQPF7fNbHWNBd9X-12" value="" style="endArrow=classic;startArrow=classic;html=1;rounded=0;exitX=1;exitY=0.5;exitDx=0;exitDy=0;entryX=0.5;entryY=1;entryDx=0;entryDy=0;entryPerimeter=0;" edge="1" parent="1" source="boBYqdQPF7fNbHWNBd9X-3" target="boBYqdQPF7fNbHWNBd9X-4">
          <mxGeometry width="50" height="50" relative="1" as="geometry">
            <mxPoint x="440" y="350" as="sourcePoint" />
            <mxPoint x="570" y="405" as="targetPoint" />
            <Array as="points">
              <mxPoint x="605" y="400" />
            </Array>
          </mxGeometry>
        </mxCell>
        <mxCell id="boBYqdQPF7fNbHWNBd9X-13" value="" style="endArrow=classic;startArrow=classic;html=1;rounded=0;exitX=1;exitY=0.5;exitDx=0;exitDy=0;entryX=0;entryY=0.5;entryDx=0;entryDy=0;entryPerimeter=0;" edge="1" parent="1" source="boBYqdQPF7fNbHWNBd9X-1" target="boBYqdQPF7fNbHWNBd9X-5">
          <mxGeometry width="50" height="50" relative="1" as="geometry">
            <mxPoint x="440" y="130" as="sourcePoint" />
            <mxPoint x="570" y="175" as="targetPoint" />
          </mxGeometry>
        </mxCell>
        <mxCell id="boBYqdQPF7fNbHWNBd9X-14" value="" style="endArrow=classic;startArrow=classic;html=1;rounded=0;exitX=0.5;exitY=0;exitDx=0;exitDy=0;entryX=0;entryY=0.5;entryDx=0;entryDy=0;" edge="1" parent="1" target="boBYqdQPF7fNbHWNBd9X-2">
          <mxGeometry width="50" height="50" relative="1" as="geometry">
            <mxPoint x="240" y="240.29" as="sourcePoint" />
            <mxPoint x="350" y="159.99999999999997" as="targetPoint" />
          </mxGeometry>
        </mxCell>
        <mxCell id="boBYqdQPF7fNbHWNBd9X-15" value="Redis" style="ellipse;whiteSpace=wrap;html=1;fillColor=#ffe6cc;strokeColor=#d79b00;" vertex="1" parent="1">
          <mxGeometry x="480" y="145" width="60" height="40" as="geometry" />
        </mxCell>
        <mxCell id="boBYqdQPF7fNbHWNBd9X-16" value="" style="endArrow=classic;startArrow=classic;html=1;rounded=0;exitX=1;exitY=0.75;exitDx=0;exitDy=0;entryX=0.5;entryY=0;entryDx=0;entryDy=0;" edge="1" parent="1" source="boBYqdQPF7fNbHWNBd9X-1" target="boBYqdQPF7fNbHWNBd9X-15">
          <mxGeometry width="50" height="50" relative="1" as="geometry">
            <mxPoint x="450" y="130" as="sourcePoint" />
            <mxPoint x="580" y="130" as="targetPoint" />
            <Array as="points">
              <mxPoint x="510" y="100" />
            </Array>
          </mxGeometry>
        </mxCell>
        <mxCell id="boBYqdQPF7fNbHWNBd9X-17" value="" style="endArrow=classic;startArrow=classic;html=1;rounded=0;exitX=0.75;exitY=1;exitDx=0;exitDy=0;entryX=0.5;entryY=0;entryDx=0;entryDy=0;" edge="1" parent="1" target="boBYqdQPF7fNbHWNBd9X-3">
          <mxGeometry width="50" height="50" relative="1" as="geometry">
            <mxPoint x="379.66" y="280" as="sourcePoint" />
            <mxPoint x="379.66" y="320" as="targetPoint" />
          </mxGeometry>
        </mxCell>
        <mxCell id="boBYqdQPF7fNbHWNBd9X-18" value="Messages" style="rounded=0;whiteSpace=wrap;html=1;" vertex="1" parent="1">
          <mxGeometry x="690" y="65" width="60" height="30" as="geometry" />
        </mxCell>
        <mxCell id="boBYqdQPF7fNbHWNBd9X-19" value="" style="endArrow=none;dashed=1;html=1;rounded=0;entryX=0;entryY=0.5;entryDx=0;entryDy=0;exitX=1;exitY=0.5;exitDx=0;exitDy=0;exitPerimeter=0;" edge="1" parent="1" source="boBYqdQPF7fNbHWNBd9X-5" target="boBYqdQPF7fNbHWNBd9X-18">
          <mxGeometry width="50" height="50" relative="1" as="geometry">
            <mxPoint x="660" y="260" as="sourcePoint" />
            <mxPoint x="710" y="210" as="targetPoint" />
          </mxGeometry>
        </mxCell>
        <mxCell id="boBYqdQPF7fNbHWNBd9X-20" value="Chats" style="rounded=0;whiteSpace=wrap;html=1;" vertex="1" parent="1">
          <mxGeometry x="700" y="310" width="60" height="20" as="geometry" />
        </mxCell>
        <mxCell id="boBYqdQPF7fNbHWNBd9X-21" value="Users" style="rounded=0;whiteSpace=wrap;html=1;" vertex="1" parent="1">
          <mxGeometry x="700" y="340" width="60" height="20" as="geometry" />
        </mxCell>
        <mxCell id="boBYqdQPF7fNbHWNBd9X-22" value="" style="endArrow=none;dashed=1;html=1;rounded=0;entryX=0;entryY=0.5;entryDx=0;entryDy=0;exitX=1;exitY=0.5;exitDx=0;exitDy=0;exitPerimeter=0;" edge="1" parent="1" source="boBYqdQPF7fNbHWNBd9X-4" target="boBYqdQPF7fNbHWNBd9X-20">
          <mxGeometry width="50" height="50" relative="1" as="geometry">
            <mxPoint x="640" y="305" as="sourcePoint" />
            <mxPoint x="680" y="280" as="targetPoint" />
          </mxGeometry>
        </mxCell>
        <mxCell id="boBYqdQPF7fNbHWNBd9X-23" value="" style="endArrow=none;dashed=1;html=1;rounded=0;entryX=0;entryY=0.5;entryDx=0;entryDy=0;exitX=1;exitY=0.5;exitDx=0;exitDy=0;exitPerimeter=0;" edge="1" parent="1" source="boBYqdQPF7fNbHWNBd9X-4" target="boBYqdQPF7fNbHWNBd9X-24">
          <mxGeometry width="50" height="50" relative="1" as="geometry">
            <mxPoint x="650" y="315" as="sourcePoint" />
            <mxPoint x="690" y="285" as="targetPoint" />
            <Array as="points">
              <mxPoint x="670" y="288" />
            </Array>
          </mxGeometry>
        </mxCell>
        <mxCell id="boBYqdQPF7fNbHWNBd9X-24" value="ChatParticipants" style="rounded=0;whiteSpace=wrap;html=1;" vertex="1" parent="1">
          <mxGeometry x="690" y="278" width="100" height="20" as="geometry" />
        </mxCell>
        <mxCell id="boBYqdQPF7fNbHWNBd9X-25" value="" style="endArrow=none;dashed=1;html=1;rounded=0;entryX=0;entryY=0.5;entryDx=0;entryDy=0;exitX=1;exitY=0.5;exitDx=0;exitDy=0;" edge="1" parent="1" source="boBYqdQPF7fNbHWNBd9X-15" target="boBYqdQPF7fNbHWNBd9X-31">
          <mxGeometry width="50" height="50" relative="1" as="geometry">
            <mxPoint x="520" y="240" as="sourcePoint" />
            <mxPoint x="570" y="190" as="targetPoint" />
          </mxGeometry>
        </mxCell>
        <mxCell id="boBYqdQPF7fNbHWNBd9X-26" value="" style="endArrow=classic;startArrow=classic;html=1;rounded=0;entryX=0.5;entryY=1;entryDx=0;entryDy=0;exitX=0.5;exitY=0;exitDx=0;exitDy=0;" edge="1" parent="1" source="boBYqdQPF7fNbHWNBd9X-2" target="boBYqdQPF7fNbHWNBd9X-1">
          <mxGeometry width="50" height="50" relative="1" as="geometry">
            <mxPoint x="440" y="340" as="sourcePoint" />
            <mxPoint x="490" y="290" as="targetPoint" />
          </mxGeometry>
        </mxCell>
        <mxCell id="boBYqdQPF7fNbHWNBd9X-27" value="" style="group" vertex="1" connectable="0" parent="1">
          <mxGeometry x="560" y="150" width="160" height="30" as="geometry" />
        </mxCell>
        <mxCell id="boBYqdQPF7fNbHWNBd9X-28" value="" style="rounded=0;whiteSpace=wrap;html=1;" vertex="1" parent="boBYqdQPF7fNbHWNBd9X-27">
          <mxGeometry width="160" height="30" as="geometry" />
        </mxCell>
        <mxCell id="boBYqdQPF7fNbHWNBd9X-29" value="" style="endArrow=none;html=1;rounded=0;entryX=0.25;entryY=0;entryDx=0;entryDy=0;exitX=0.25;exitY=1;exitDx=0;exitDy=0;" edge="1" parent="boBYqdQPF7fNbHWNBd9X-27" source="boBYqdQPF7fNbHWNBd9X-28" target="boBYqdQPF7fNbHWNBd9X-28">
          <mxGeometry width="50" height="50" relative="1" as="geometry">
            <mxPoint x="-20" y="110" as="sourcePoint" />
            <mxPoint x="30" y="60" as="targetPoint" />
          </mxGeometry>
        </mxCell>
        <mxCell id="boBYqdQPF7fNbHWNBd9X-30" value="ChatParticipantIds" style="text;html=1;align=center;verticalAlign=middle;whiteSpace=wrap;rounded=0;" vertex="1" parent="boBYqdQPF7fNbHWNBd9X-27">
          <mxGeometry x="40" width="120" height="30" as="geometry" />
        </mxCell>
        <mxCell id="boBYqdQPF7fNbHWNBd9X-31" value="chatId" style="text;html=1;align=center;verticalAlign=middle;whiteSpace=wrap;rounded=0;" vertex="1" parent="boBYqdQPF7fNbHWNBd9X-27">
          <mxGeometry width="40" height="30" as="geometry" />
        </mxCell>
        <mxCell id="boBYqdQPF7fNbHWNBd9X-32" value="" style="endArrow=classic;html=1;rounded=0;exitX=0.25;exitY=0;exitDx=0;exitDy=0;entryX=0.25;entryY=1;entryDx=0;entryDy=0;" edge="1" parent="1" source="boBYqdQPF7fNbHWNBd9X-2" target="boBYqdQPF7fNbHWNBd9X-1">
          <mxGeometry width="50" height="50" relative="1" as="geometry">
            <mxPoint x="300.6" y="202.03999999999996" as="sourcePoint" />
            <mxPoint x="300" y="125" as="targetPoint" />
          </mxGeometry>
        </mxCell>
        <mxCell id="boBYqdQPF7fNbHWNBd9X-33" value="Chat events" style="edgeLabel;html=1;align=center;verticalAlign=middle;resizable=0;points=[];labelBorderColor=default;" vertex="1" connectable="0" parent="boBYqdQPF7fNbHWNBd9X-32">
          <mxGeometry x="0.0083" y="-1" relative="1" as="geometry">
            <mxPoint x="-11" y="10" as="offset" />
          </mxGeometry>
        </mxCell>
        <mxCell id="boBYqdQPF7fNbHWNBd9X-34" value="" style="endArrow=none;dashed=1;html=1;rounded=0;entryX=0;entryY=0.5;entryDx=0;entryDy=0;exitX=1;exitY=0.5;exitDx=0;exitDy=0;exitPerimeter=0;" edge="1" parent="1" source="boBYqdQPF7fNbHWNBd9X-4" target="boBYqdQPF7fNbHWNBd9X-21">
          <mxGeometry width="50" height="50" relative="1" as="geometry">
            <mxPoint x="650" y="330" as="sourcePoint" />
            <mxPoint x="690" y="298" as="targetPoint" />
            <Array as="points">
              <mxPoint x="670" y="350" />
            </Array>
          </mxGeometry>
        </mxCell>
        <mxCell id="boBYqdQPF7fNbHWNBd9X-35" value="" style="endArrow=classic;html=1;rounded=0;exitX=0.25;exitY=0;exitDx=0;exitDy=0;entryX=0.25;entryY=1;entryDx=0;entryDy=0;" edge="1" parent="1">
          <mxGeometry x="0.25" y="37" width="50" height="50" relative="1" as="geometry">
            <mxPoint x="413" y="120" as="sourcePoint" />
            <mxPoint x="413" y="200" as="targetPoint" />
            <mxPoint as="offset" />
          </mxGeometry>
        </mxCell>
        <mxCell id="boBYqdQPF7fNbHWNBd9X-36" value="Message events" style="edgeLabel;html=1;align=center;verticalAlign=middle;resizable=0;points=[];labelBorderColor=default;" vertex="1" connectable="0" parent="boBYqdQPF7fNbHWNBd9X-35">
          <mxGeometry x="0.0083" relative="1" as="geometry">
            <mxPoint x="17" y="-15" as="offset" />
          </mxGeometry>
        </mxCell>
      </root>
    </mxGraphModel>
  </diagram>
</mxfile>
